PathFileType	4	(X/Y/Z)	c:/Users/goper/Files/vsCode/490R/osim_files/C03/C03_Slow_01.trc
DataRate	CameraRate	NumFrames	NumMarkers	Units                	OrigDataRate	OrigDataStartFrame	OrigNumFrames
250.00	250.00	11	36	mm	250.0	1678	2684
                Frame#	Time	LPSIS			LASIS			LTH1			LTH2			LTH3			LTH4			LLFE			LMFE			LSH1			LSH2			LSH3			LSH4			LLMAL			LMMAL			LCAL			LMTP5			LTOE			LMTP1			RPSIS			RASIS			RTH1			RTH2			RTH3			RTH4			RLFE			RMFE			RSH1			RSH2			RSH3			RSH4			RLMAL			RMMAL			RCAL			RMTP1			RTOE			RMTP5		
		X1	Y1	Z1	X2	Y2	Z2	X3	Y3	Z3	X4	Y4	Z4	X5	Y5	Z5	X6	Y6	Z6	X7	Y7	Z7	X8	Y8	Z8	X9	Y9	Z9	X10	Y10	Z10	X11	Y11	Z11	X12	Y12	Z12	X13	Y13	Z13	X14	Y14	Z14	X15	Y15	Z15	X16	Y16	Z16	X17	Y17	Z17	X18	Y18	Z18	X19	Y19	Z19	X20	Y20	Z20	X21	Y21	Z21	X22	Y22	Z22	X23	Y23	Z23	X24	Y24	Z24	X25	Y25	Z25	X26	Y26	Z26	X27	Y27	Z27	X28	Y28	Z28	X29	Y29	Z29	X30	Y30	Z30	X31	Y31	Z31	X32	Y32	Z32	X33	Y33	Z33	X34	Y34	Z34	X35	Y35	Z35	X36	Y36	Z36

1678	6.70800	499.20782	1029.71289	333.36267	322.29779	969.77600	374.23300	500.33630	638.72137	414.05649	504.96194	576.92322	404.32501	424.17487	625.84900	404.16797	440.61536	567.91064	397.21301	502.32141	488.69168	390.74942	507.31287	486.13229	278.65427	599.61365	318.48645	392.18304	602.35382	272.02029	386.30734	539.02063	312.32797	398.42096	550.52649	265.70230	391.84842	585.31134	107.01070	358.56891	567.68866	117.08397	280.88870	657.41254	70.84989	331.04922	455.45163	50.75366	377.41397	425.82187	64.27830	321.84589	451.71973	53.39523	283.04047	494.59604	1018.88361	221.00838	323.10361	982.87061	169.23544	311.86755	599.13293	153.44168	285.25186	543.86926	165.01865	259.18900	624.56995	125.62754	224.29855	573.72852	131.71170	200.81189	509.76608	146.49744	197.84492	522.78217	260.30402	266.83627	315.33200	156.69986	256.41882	268.75586	157.15553	210.25928	318.57397	131.07275	210.16791	275.32928	134.60268	193.22610	119.78625	158.43474	155.37450	127.21927	230.05865	242.58247	74.26428	216.19467	34.48384	81.75824	194.35716	24.35583	100.03541	151.26587	88.80962	61.87537	103.86733
1679	6.71200	494.74890	1029.02380	332.65524	317.95691	968.89929	374.01315	497.29114	638.53204	413.60049	502.18079	576.74951	403.91003	421.17749	625.38354	403.75430	437.90292	567.56750	396.89709	500.03055	488.57877	390.44638	504.91824	486.01605	278.29410	598.23907	318.85468	391.81073	601.23297	272.39670	385.94794	537.65161	312.31754	398.10846	549.42633	265.72745	391.51660	585.08661	107.20029	358.34045	567.38220	117.17311	280.60373	657.28784	71.07941	330.85437	455.41031	50.73523	377.42194	425.72519	64.16325	321.84491	451.82861	52.92316	283.31891	490.02103	1017.96912	220.32111	318.48129	981.83362	168.85941	308.47559	597.78754	153.48157	282.05615	542.58466	165.16396	255.90453	623.07507	125.46097	220.97958	572.13416	131.64099	196.83090	508.73972	146.46390	194.49710	521.37469	260.45673	258.25864	312.85754	156.14758	247.11307	266.65100	156.37253	202.42661	317.75082	131.09602	201.01579	274.44586	133.93607	180.12021	118.84613	157.32298	143.04166	127.21691	229.44421	228.80652	72.08963	214.79907	20.84693	84.73631	194.28511	10.94491	103.27549	151.43990	73.14688	63.81563	103.38091
1680	6.71600	490.36121	1028.31531	331.95419	313.65683	968.03363	373.72672	494.24478	638.38879	413.21155	499.36740	576.60260	403.52496	418.15921	624.83215	403.40207	435.18323	567.20868	396.59784	497.60077	488.36258	390.15942	502.28506	485.75089	277.98697	596.84949	319.19522	391.46082	600.05420	272.78375	385.59836	536.36548	312.33328	397.85049	548.29620	265.80276	391.27301	584.84790	107.44860	358.09247	567.03564	117.32880	280.36905	657.14185	71.26901	330.66052	455.37604	50.68880	377.42575	425.63110	64.01527	321.85355	451.52228	53.16181	283.03348	485.32162	1017.08124	219.64026	313.65289	980.83704	168.47751	304.98364	596.30463	153.55095	278.64795	541.04541	165.32933	252.30658	621.35504	125.33115	217.62384	570.41913	131.54524	192.81458	507.60226	146.49773	190.75438	520.13312	260.56714	250.03271	310.57468	155.46619	237.88786	264.81644	155.44028	193.70062	316.72665	129.99390	191.84149	273.49454	133.26083	167.35802	118.20836	156.55498	130.89963	127.35123	228.89058	215.12195	70.01327	213.43736	7.47175	87.86180	194.33752	-2.13928	106.69718	151.67990	58.18750	66.19315	102.98475
1681	6.72000	485.81384	1027.54565	331.24365	309.29633	967.18683	373.44650	491.19333	638.22278	412.89481	496.55194	576.45270	403.19373	415.23349	624.42255	403.24432	432.35757	566.66571	396.17303	495.29672	488.22610	389.85471	499.80139	485.58179	277.67340	595.30005	319.49173	391.13705	598.83984	273.15329	385.32788	534.89978	312.30807	397.59451	547.17468	265.82364	390.97534	584.63434	107.74892	357.86688	566.75287	117.48423	280.11856	656.99725	71.45666	330.49625	455.37140	50.72246	377.47263	425.55972	63.88300	321.87613	451.44556	53.08091	283.04163	480.68814	1016.13824	218.89604	309.01971	979.79785	168.07375	301.59045	594.84259	153.65695	275.31592	539.61206	165.52867	249.03734	619.76807	125.17083	214.26479	568.75867	131.42824	188.87770	506.49628	146.48787	187.41170	518.77216	260.71411	241.95065	308.34668	154.73895	228.65820	262.66974	154.85612	185.65483	315.92361	129.55605	182.79503	272.77103	132.70253	154.64799	117.62051	155.50937	118.96475	127.30245	228.21947	201.81255	68.19452	212.00893	-5.49283	91.03271	194.42065	-14.99376	110.28964	151.95795	44.46588	68.53651	102.63357
1682	6.72400	481.45078	1026.84375	330.42151	305.56653	965.96942	373.21701	488.13330	638.06146	412.49332	493.71524	576.32220	402.77536	412.18387	624.00397	402.91565	429.57565	566.41455	395.98178	492.82837	488.07715	389.49316	497.13843	485.35751	277.32852	593.77808	319.87384	390.78110	597.58411	273.57458	384.95160	533.54724	312.26825	397.28348	546.01410	265.88953	390.67255	584.38379	108.07705	357.64737	566.42188	117.64386	279.91522	656.91010	71.71736	330.30908	455.33783	50.68681	377.44620	425.50259	63.76479	321.85812	451.37949	52.99378	283.02130	476.01212	1015.23950	218.16711	304.51022	978.76208	167.68889	298.15552	593.41193	153.63335	272.01132	538.17816	165.61400	245.54288	618.07501	125.00600	210.96101	567.08997	131.30255	185.03227	505.30408	146.50055	184.03242	517.42706	260.82156	234.05246	306.24365	153.93266	219.78819	260.92773	153.99188	177.69554	315.08676	129.03613	173.77063	271.94409	132.05537	141.73254	117.25725	155.13940	107.43153	127.60506	227.58253	189.20021	66.87214	211.10448	-18.10175	94.36113	194.57365	-27.55884	114.04442	152.22667	30.51048	71.16702	102.31415
1683	6.72800	476.94577	1026.08105	329.68372	301.04257	965.23706	372.86661	484.92523	637.85907	412.04150	491.26355	576.61688	402.73178	409.21906	623.61212	402.75964	426.70728	566.04578	395.75323	489.85156	488.00232	389.42093	494.44989	485.16919	276.96695	592.26117	320.36963	390.41385	596.30023	274.01923	384.59811	532.03888	312.28879	397.02377	544.87964	266.04041	390.46677	584.16443	108.33632	357.44287	566.01337	117.87239	279.62482	656.82526	72.02198	330.12833	455.30304	50.66267	377.41690	425.43146	63.62574	321.83566	451.28540	52.91769	283.01852	471.40149	1014.24780	217.35965	299.71698	977.60492	167.33844	294.92230	592.07672	153.49797	268.55997	536.64795	165.67188	242.00179	616.36798	124.81722	207.55998	565.29462	131.13100	180.86333	504.06326	146.48315	180.74219	515.98340	260.86197	226.17154	304.22202	153.11537	210.93620	259.20947	153.12003	170.38879	314.21664	128.59372	165.03110	271.30923	131.43803	129.85532	117.34914	153.99574	96.04099	127.80916	226.84148	175.57005	64.95240	208.90858	-30.41605	97.67672	194.74617	-39.74135	117.89474	152.56696	16.89359	73.93049	102.01771
1684	6.73200	472.45102	1025.31836	328.88202	296.61157	964.44189	372.43927	481.70996	637.75470	411.63455	487.76907	576.05682	402.00192	406.01700	623.26880	402.57840	423.67297	565.65466	395.48224	487.63977	487.72592	388.84863	491.66153	484.88516	276.60843	590.56982	320.71997	390.07632	594.93433	274.47324	384.30594	530.44629	312.29855	396.73462	543.55872	266.17245	390.18665	583.85236	108.71314	357.26981	565.63898	118.06390	279.41806	656.69031	72.41493	329.99957	455.26031	50.62761	377.39969	425.29477	63.49269	321.82526	451.21112	52.84551	282.97168	466.67358	1013.29315	216.62569	294.97366	976.40344	166.93065	291.20135	590.53149	153.61105	265.36365	535.25439	165.65056	238.67328	614.80328	124.57665	204.18913	563.63226	131.03918	177.23013	502.76447	146.46982	177.38710	514.57172	260.90158	218.40788	302.22760	152.27498	202.55728	257.63705	152.53514	162.14587	313.68817	128.08078	156.91972	270.51038	130.92368	117.96492	117.31287	153.09541	84.94926	128.21187	226.32367	162.82915	63.55198	207.43344	-42.50205	101.12546	195.02905	-51.72572	121.74043	153.06230	3.63765	76.77940	101.72762
1685	6.73600	468.03033	1024.57141	328.02753	291.74786	963.86237	371.84784	478.40466	637.63092	411.17331	484.63226	575.95892	401.57285	404.31082	624.45300	403.85147	420.59210	565.42572	395.19937	484.93167	487.58475	388.50830	488.74164	484.64795	276.25656	588.87372	321.17331	389.76306	593.46387	274.91394	383.98065	528.79730	312.39346	396.53647	542.05371	266.34158	389.85556	583.51270	109.12328	357.07404	565.28668	118.24863	279.28348	656.46216	72.78105	329.89551	455.16705	50.60718	377.34164	425.15985	63.34652	321.79889	451.09409	52.76783	282.94141	462.01624	1012.33307	215.76123	290.20764	975.24109	166.53181	287.93942	589.22150	153.36362	261.99054	533.74066	165.52734	234.99852	613.12848	124.38860	200.85023	561.83008	130.79604	173.54655	501.39880	146.37627	174.25729	513.12811	260.92178	210.76414	300.34460	151.35983	193.46635	256.36520	151.16202	154.57089	313.00638	127.51366	147.26889	269.72089	129.85909	106.36002	117.32874	152.22797	74.06312	128.73749	225.75201	150.39786	62.34041	205.98717	-54.30151	104.60267	195.24884	-63.22316	125.60657	153.52965	-9.31305	79.68034	101.53374
1686	6.74000	463.47824	1023.81311	327.22104	287.26535	963.10498	371.47620	475.31790	637.62787	410.88538	481.52652	575.90356	401.13480	399.43729	622.71991	402.04236	417.41312	565.05377	394.97717	482.04178	487.41476	388.17978	485.73743	484.38080	275.92209	587.06775	321.62390	389.46558	591.99896	275.44296	383.70786	527.14783	312.40991	396.19733	540.66455	266.50162	389.58093	583.15448	109.47523	356.91040	564.84698	118.45602	279.01450	656.24841	73.27248	329.77084	455.05292	50.57360	377.30542	424.99448	63.22033	321.76944	451.21402	52.35711	283.12457	457.27856	1011.37567	214.97247	285.27969	974.11584	166.03252	284.17810	587.75085	153.29454	258.63736	532.20428	165.41470	231.50409	611.52783	124.16247	197.44179	560.17462	130.67473	169.73976	500.07910	146.26454	171.14391	511.47870	260.88690	203.09439	298.76221	150.23973	185.05962	254.90657	150.23178	147.11313	312.32275	127.05679	139.31752	269.27484	129.52890	94.77917	117.47300	151.39650	63.58305	129.27232	225.26274	138.26747	61.40691	204.52966	-65.49205	108.07326	195.57718	-74.39778	129.48749	154.02895	-21.84198	82.66244	101.41252
1687	6.74400	458.99945	1023.05151	326.37823	282.75143	962.44263	370.99533	471.73547	637.39441	410.32385	478.25900	575.81183	400.69348	396.13986	622.47485	401.88025	414.17087	564.84802	394.71445	479.15012	487.26669	387.86469	482.63113	484.09488	275.60703	585.21991	322.13315	389.13611	590.41394	275.96045	383.40253	525.42401	312.51401	395.94141	539.11774	266.77872	389.36090	582.76923	109.96086	356.78403	564.44849	118.66236	278.91873	656.05481	73.79482	329.63239	454.96503	50.55933	377.24594	424.84546	63.12255	321.71997	451.11356	52.32092	283.10818	452.58652	1010.40247	214.15916	280.57880	972.98401	165.64969	280.88785	586.45880	152.81651	255.39667	530.78790	165.14430	228.06494	610.04871	123.91245	193.75638	558.60577	130.53255	166.05402	498.68756	146.13512	167.95189	509.94366	260.81677	195.86745	297.03387	149.11194	176.29814	252.74391	149.42264	139.84602	311.77322	126.52511	131.31400	268.84433	128.94931	83.77199	117.73032	150.66116	53.27222	129.93523	224.78598	126.39719	60.41941	203.02757	-76.45928	111.59212	195.99507	-85.19498	133.35753	154.53105	-34.05057	85.61990	101.45110
1688	6.74800	454.45316	1022.28448	325.46774	278.15128	961.76129	370.56155	468.27176	637.28046	409.85287	475.43533	576.03973	400.54031	392.80978	622.22412	401.68640	410.90567	564.58417	394.48026	476.18985	487.12488	387.53513	479.42490	483.78931	275.29697	583.34131	322.62646	388.79352	588.92084	276.59210	383.10260	523.57581	312.54343	395.72620	537.63379	266.90018	389.10028	582.78296	111.00143	356.95615	563.98303	118.97859	278.72717	655.87091	74.28932	329.50818	454.90253	50.55365	377.21341	424.70901	63.01183	321.69247	450.99692	52.26517	283.09006	447.82764	1009.37256	213.33951	275.74460	971.91138	165.24147	277.18750	585.01837	152.56087	252.17685	529.33984	164.66116	224.32420	608.50995	123.68562	190.30522	556.96826	130.35194	162.34177	497.26044	145.97899	165.00847	508.25372	260.77347	188.62233	295.36081	148.59158	168.33600	251.56531	148.48735	131.93680	311.00064	125.56601	123.39314	268.37439	128.39862	72.99111	118.05677	149.96576	43.43488	130.58932	224.43034	114.96994	59.71177	201.80609	-86.96368	115.00705	196.45934	-95.53168	137.13498	155.19418	-45.75611	88.57991	101.44115
